<svg width="9" height="9" viewBox="0 0 9 9" fill="none" xmlns="http://www.w3.org/2000/svg">
<path d="M3.74923 0.575669L4.18615 0.138751C4.37115 -0.0462503 4.6703 -0.0462503 4.85333 0.138751L8.67932 3.96277C8.86432 4.14777 8.86432 4.44692 8.67932 4.62995L4.85333 8.45594C4.66833 8.64094 4.36918 8.64094 4.18615 8.45594L3.74923 8.01902C3.56226 7.83205 3.5662 7.527 3.7571 7.34396L6.12866 5.08459H0.472344C0.210587 5.08459 0 4.874 0 4.61224V3.98245C0 3.72069 0.210587 3.51011 0.472344 3.51011H6.12866L3.7571 1.25073C3.56423 1.06769 3.56029 0.762639 3.74923 0.575669Z" fill="#212121"/>
</svg>
