<svg width="120" height="42" viewBox="0 0 120 42" fill="none" xmlns="http://www.w3.org/2000/svg">
<path fill-rule="evenodd" clip-rule="evenodd" d="M51.1912 17.5602C51.6208 18.888 52.3142 20.0956 53.2073 21.124C52.2821 20.3206 51.2064 19.6812 50.0309 19.255C49.9277 19.2161 49.8228 19.1806 49.7163 19.1468C49.4896 19.4309 49.2731 19.7235 49.0685 20.0246C49.0228 20.0923 48.9771 20.1599 48.9315 20.2293C48.9281 20.2326 48.9281 20.236 48.9247 20.2394C48.9112 20.2614 48.8959 20.2834 48.8807 20.3071C47.4244 22.5566 46.577 25.2391 46.577 28.1196C46.577 25.251 45.7381 22.5803 44.292 20.3358C44.2717 20.3037 44.2497 20.2715 44.2294 20.2394C44.182 20.1667 44.1347 20.0956 44.0856 20.0246C43.881 19.7235 43.6645 19.4309 43.4378 19.1468C43.338 19.1789 43.2399 19.2127 43.1401 19.2483C41.9579 19.6762 40.8771 20.3172 39.9468 21.124C40.8415 20.0956 41.5333 18.888 41.9629 17.5602C41.1781 16.8329 40.3105 16.1919 39.3768 15.6541L33.3792 20.1227C33.9965 21.5452 34.8388 22.8475 35.8587 23.9858C36.2477 24.4188 36.6621 24.8281 37.0985 25.2104C37.1695 25.273 37.2406 25.3339 37.3116 25.3948C37.4368 25.5013 37.5653 25.6045 37.6939 25.706C38.4212 26.2777 39.206 26.78 40.0365 27.2045C40.8517 26.3775 41.5739 25.4607 42.1913 24.4696C41.8226 25.5419 41.5587 26.6616 41.4132 27.8202C43.0116 28.4359 44.7487 28.7725 46.5635 28.7741H46.5923C48.4207 28.7725 50.1712 28.4291 51.7798 27.805C51.6411 26.7039 51.3941 25.6332 51.0508 24.6083C51.6478 25.547 52.3413 26.4164 53.1176 27.2045C53.9515 26.78 54.738 26.2743 55.467 25.7009C55.5938 25.6011 55.719 25.4979 55.8425 25.3948C55.8459 25.3931 55.8475 25.3897 55.8509 25.388C55.9203 25.3305 55.9879 25.2713 56.0556 25.2104C56.4937 24.8281 56.9063 24.4188 57.2954 23.9858C58.3153 22.8475 59.1576 21.5452 59.7749 20.1227L53.7773 15.6541C52.8436 16.1919 51.9776 16.8329 51.1912 17.5602Z" fill="url(#paint0_linear_4042_1130)"/>
<path fill-rule="evenodd" clip-rule="evenodd" d="M46.3153 0C44.4954 0.00169139 42.755 0.343352 41.1515 0.962399C41.2936 2.0821 41.5456 3.16797 41.8974 4.20986C41.2936 3.25423 40.59 2.36794 39.8001 1.56622C38.9663 1.99245 38.1798 2.49649 37.4491 3.07156C37.3222 3.17135 37.1954 3.27453 37.0702 3.37939C36.9992 3.44028 36.9281 3.50117 36.8571 3.56375C36.4207 3.9477 36.0063 4.35532 35.6173 4.78832C34.6008 5.92493 33.7602 7.22222 33.1428 8.63961L39.2369 13.1844C40.1435 12.6499 40.9858 12.019 41.752 11.3069C41.3241 9.94367 40.6204 8.70388 39.7054 7.65184C40.634 8.45694 41.7114 9.09628 42.8903 9.52251C43.0154 9.56818 43.144 9.61215 43.2725 9.65275C43.4823 9.38551 43.6819 9.1115 43.8713 8.83073C43.9288 8.74616 43.9846 8.6599 44.0404 8.57533C44.054 8.55335 44.0675 8.53305 44.081 8.51106C45.5086 6.27843 46.3356 3.62295 46.3356 0.776347C46.3356 3.62295 47.1627 6.27843 48.5903 8.51106C48.6038 8.53305 48.6173 8.55335 48.6309 8.57533C48.6901 8.66667 48.7509 8.758 48.8118 8.84765C48.9979 9.12165 49.1941 9.39227 49.4004 9.65275C49.529 9.61215 49.6558 9.56818 49.781 9.52251C50.9599 9.09628 52.0373 8.45694 52.9659 7.65184C52.0525 8.70388 51.3472 9.94367 50.9193 11.3069C51.6889 12.0224 52.5346 12.655 53.4462 13.1894L59.5335 8.65145C58.9162 7.23068 58.0739 5.92662 57.054 4.78832C56.6649 4.35532 56.2522 3.9477 55.8142 3.56375C55.7431 3.50117 55.6721 3.44028 55.6011 3.37939C55.4759 3.27453 55.3507 3.17135 55.2222 3.07156C54.4949 2.49987 53.7118 1.99584 52.8813 1.5713C52.0796 2.38824 51.3675 3.28975 50.7569 4.2623C51.1172 3.20518 51.376 2.10239 51.5197 0.962399C49.918 0.343352 48.1759 0.00169139 46.3559 0L46.3153 0Z" fill="url(#paint1_linear_4042_1130)"/>
<path d="M99.2888 18.5985H96.246C96.246 18.5985 99.4884 18.1283 100.762 15.1312L103.854 7.86157L108.334 18.5985H99.2888ZM107.658 0H99.9231L87.6233 28.7418H94.9774L96.8786 24.2613H110.743L111.773 26.7442C112.275 27.9536 113.456 28.7418 114.765 28.7418H120L107.658 0Z" fill="white"/>
<path d="M86.3532 0L79.8092 15.1481C78.1821 18.9114 78.4409 22.898 78.4409 22.898L76.1118 17.3993L68.5598 0H60.908L72.7781 26.8136C73.2957 27.9857 74.4577 28.7418 75.7397 28.7418H81.2401L94.005 0H86.3532Z" fill="white"/>
<path d="M21.5144 0V17.5414L6.97359 0H0V28.7418H6.97359V16.0174C6.97359 13.2182 5.0082 8.55335 5.0082 8.55335L9.07091 13.6935L20.5436 27.5679C21.1576 28.3121 22.0743 28.7418 23.0401 28.7418H28.488V0H21.5144Z" fill="white"/>
<path d="M9.76262 41.9125V40.8486H11.5673C12.1559 40.8486 12.6126 40.6964 12.9357 40.3903C13.2587 40.0858 13.4211 39.6545 13.4211 39.098V36.7504C13.4211 36.1939 13.2587 35.7643 12.9357 35.4582C12.6126 35.1537 12.1559 35.0015 11.5673 35.0015H9.76262V33.9359H11.5352C12.501 33.9359 13.2452 34.1879 13.7763 34.6852C14.304 35.1859 14.5679 35.8878 14.5679 36.7961V39.0558C14.5679 39.6579 14.4495 40.1738 14.2127 40.5983C13.9742 41.0262 13.6274 41.351 13.1742 41.5759C12.7209 41.8009 12.1729 41.9125 11.5284 41.9125H9.76262ZM9.00488 41.9125V33.9359H10.1246V41.9125H9.00488ZM18.0758 41.9125V33.9359H19.1955V41.9125H18.0758ZM18.6187 41.9125V40.8486H23.2007V41.9125H18.6187ZM18.6187 38.4841V37.4202H22.5969V38.4841H18.6187ZM18.6187 35.0015V33.9359H23.2007V35.0015H18.6187ZM28.378 41.9125L25.7767 33.9359H26.9945L28.9091 40.1907L30.8221 33.9359H32.0416L29.4402 41.9125H28.378ZM35.0556 41.9125V33.9359H36.1753V41.9125H35.0556ZM35.5986 41.9125V40.8486H40.1805V41.9125H35.5986ZM35.5986 38.4841V37.4202H39.575V38.4841H35.5986ZM35.5986 35.0015V33.9359H40.1805V35.0015H35.5986ZM43.5785 41.9125V33.9359H44.6982V41.9125H43.5785ZM44.1384 41.9125V40.8486H48.7034V41.9125H44.1384ZM54.2461 41.9954C53.6829 41.9954 53.1907 41.8736 52.7695 41.63C52.3501 41.3865 52.0236 41.0448 51.7902 40.6017C51.5585 40.1585 51.4418 39.6444 51.4418 39.0558V36.7961C51.4418 36.2024 51.5585 35.6848 51.7902 35.2451C52.0236 34.8053 52.3501 34.4619 52.7695 34.2184C53.1907 33.9765 53.6829 33.8547 54.2461 33.8547C54.8077 33.8547 55.3015 33.9765 55.7227 34.2184C56.1422 34.4619 56.4686 34.8053 56.702 35.2451C56.9337 35.6848 57.0504 36.2024 57.0504 36.7961V39.0558C57.0504 39.6444 56.9337 40.1585 56.702 40.6017C56.4686 41.0448 56.1422 41.3865 55.7227 41.63C55.3015 41.8736 54.8077 41.9954 54.2461 41.9954ZM54.2461 40.8926C54.7468 40.8926 55.1476 40.7285 55.4504 40.3987C55.7515 40.0706 55.902 39.6342 55.902 39.093V36.7555C55.902 36.2108 55.7515 35.7745 55.4504 35.448C55.1476 35.1216 54.7468 34.9575 54.2461 34.9575C53.7488 34.9575 53.348 35.1216 53.0452 35.448C52.7408 35.7745 52.5902 36.2108 52.5902 36.7555V39.093C52.5902 39.6342 52.7408 40.0706 53.0452 40.3987C53.348 40.7285 53.7488 40.8926 54.2461 40.8926ZM61.1334 38.819V37.7551H63.6824C64.0494 37.7551 64.342 37.6282 64.5636 37.3762C64.7852 37.1225 64.8968 36.7944 64.8968 36.3834C64.8968 35.9656 64.7852 35.6324 64.5636 35.3804C64.342 35.1267 64.0494 35.0015 63.6824 35.0015H61.1334V33.9359H63.6452C64.1289 33.9359 64.5484 34.0374 64.9069 34.2421C65.2655 34.4433 65.5446 34.7292 65.7425 35.0928C65.9438 35.4599 66.0419 35.8895 66.0419 36.3834C66.0419 36.8739 65.9438 37.3018 65.7425 37.6654C65.5446 38.0325 65.2655 38.3166 64.9069 38.5179C64.5484 38.7192 64.1289 38.819 63.6452 38.819H61.1334ZM60.5567 41.9125V33.9359H61.6764V41.9125H60.5567ZM72.64 39.2029L74.9825 33.9359H76.0295V41.9125H74.9369V35.9402L74.9944 36.2903L73.029 40.8046H72.2509L70.2855 36.4003L70.3414 35.9402V41.9125H69.2487V33.9359H70.2974L72.64 39.2029ZM79.8131 41.9125V33.9359H80.9328V41.9125H79.8131ZM80.3561 41.9125V40.8486H84.938V41.9125H80.3561ZM80.3561 38.4841V37.4202H84.3325V38.4841H80.3561ZM80.3561 35.0015V33.9359H84.938V35.0015H80.3561ZM88.3343 41.9074V33.9359H89.3492L93.2495 40.1027L93.1193 40.2448V33.9359H94.2271V41.9074H93.2021L89.312 35.8354L89.4439 35.6933V41.9074H88.3343ZM99.6074 41.9125V34.5905H100.725V41.9125H99.6074ZM97.3511 35.0015V33.9359H102.98V35.0015H97.3511ZM108.066 41.9954C107.677 41.9954 107.313 41.9582 106.97 41.8854C106.628 41.811 106.309 41.7028 106.009 41.5573C105.712 41.4085 105.433 41.2275 105.174 41.0093L105.871 40.1535C106.173 40.4156 106.51 40.6135 106.874 40.7438C107.239 40.8757 107.636 40.9417 108.066 40.9417C108.643 40.9417 109.089 40.8351 109.407 40.6186C109.725 40.4021 109.886 40.101 109.886 39.7137V39.7069C109.886 39.4042 109.805 39.1725 109.644 39.0101C109.483 38.8494 109.274 38.7293 109.012 38.6515C108.749 38.572 108.464 38.5094 108.151 38.457C107.851 38.4063 107.55 38.3454 107.246 38.276C106.94 38.2067 106.659 38.0967 106.403 37.9496C106.146 37.8007 105.94 37.5876 105.784 37.3102C105.629 37.0329 105.553 36.6607 105.553 36.1956V36.1905C105.553 35.4497 105.8 34.8746 106.292 34.467C106.786 34.0577 107.483 33.8547 108.384 33.8547C108.81 33.8547 109.23 33.9241 109.637 34.0594C110.048 34.1964 110.448 34.4061 110.835 34.6886L110.197 35.5766C109.894 35.3499 109.593 35.1808 109.291 35.0725C108.988 34.9626 108.687 34.9085 108.384 34.9085C107.839 34.9085 107.413 35.0167 107.112 35.2332C106.811 35.4514 106.661 35.7609 106.661 36.1584V36.1652C106.661 36.4645 106.747 36.6929 106.923 36.8502C107.099 37.0075 107.33 37.1225 107.613 37.1986C107.895 37.273 108.2 37.3441 108.526 37.41C108.819 37.4675 109.11 37.5386 109.402 37.6215C109.697 37.7026 109.962 37.821 110.202 37.9766C110.441 38.1323 110.632 38.3454 110.777 38.616C110.921 38.8866 110.994 39.2384 110.994 39.6748V39.6866C110.994 40.4207 110.737 40.9907 110.226 41.3933C109.713 41.7958 108.995 41.9954 108.066 41.9954Z" fill="white"/>
<defs>
<linearGradient id="paint0_linear_4042_1130" x1="59.7749" y1="22.2141" x2="33.3792" y2="22.2141" gradientUnits="userSpaceOnUse">
<stop stop-color="#24FF80"/>
<stop offset="0.795" stop-color="#05E3EA"/>
</linearGradient>
<linearGradient id="paint1_linear_4042_1130" x1="59.5335" y1="6.59472" x2="33.1428" y2="6.59472" gradientUnits="userSpaceOnUse">
<stop stop-color="#24FF80"/>
<stop offset="0.795" stop-color="#05E3EA"/>
</linearGradient>
</defs>
</svg>
