<svg width="27" height="29" viewBox="0 0 27 29" fill="none" xmlns="http://www.w3.org/2000/svg">
<path fill-rule="evenodd" clip-rule="evenodd" d="M18.0454 17.5576C18.475 18.8851 19.1684 20.0926 20.0613 21.1208C19.1362 20.3175 18.0606 19.6783 16.8852 19.2521C16.7821 19.2132 16.6772 19.1777 16.5707 19.1439C16.3441 19.428 16.1276 19.7205 15.923 20.0216C15.8773 20.0892 15.8316 20.1569 15.786 20.2262C15.7826 20.2296 15.7826 20.233 15.7792 20.2364C15.7657 20.2583 15.7505 20.2803 15.7352 20.304C14.2791 22.5532 13.4318 25.2354 13.4318 28.1155C13.4318 25.2473 12.593 22.5769 11.147 20.3327C11.1267 20.3006 11.1047 20.2685 11.0844 20.2364C11.0371 20.1636 10.9897 20.0926 10.9407 20.0216C10.736 19.7205 10.5196 19.428 10.2929 19.1439C10.1932 19.176 10.0951 19.2098 9.99529 19.2453C8.81313 19.6732 7.73245 20.3141 6.80229 21.1208C7.69694 20.0926 8.38864 18.8851 8.81821 17.5576C8.03349 16.8304 7.1659 16.1894 6.23236 15.6516L0.235352 20.1197C0.852641 21.5419 1.69486 22.8441 2.71465 23.9823C3.10363 24.4152 3.51798 24.8245 3.95431 25.2067C4.02534 25.2692 4.09637 25.3301 4.1674 25.391C4.29255 25.4976 4.42108 25.6007 4.54961 25.7022C5.27683 26.2738 6.06155 26.7761 6.89193 27.2006C7.70709 26.3736 8.42923 25.457 9.04652 24.4659C8.67784 25.5381 8.41401 26.6577 8.26857 27.8161C9.86676 28.4317 11.6036 28.7683 13.4183 28.77H13.447C15.2752 28.7683 17.0256 28.425 18.634 27.8009C18.4953 26.7 18.2484 25.6295 17.905 24.6046C18.502 25.5432 19.1954 26.4125 19.9717 27.2006C20.8055 26.7761 21.5919 26.2704 22.3208 25.6971C22.4476 25.5973 22.5728 25.4942 22.6962 25.391C22.6996 25.3893 22.7013 25.3859 22.7047 25.3842C22.774 25.3267 22.8417 25.2676 22.9093 25.2067C23.3473 24.8245 23.76 24.4152 24.149 23.9823C25.1688 22.8441 26.011 21.5419 26.6283 20.1197L20.6313 15.6516C19.6977 16.1894 18.8318 16.8304 18.0454 17.5576Z" fill="url(#paint0_linear_4042_1137)"/>
<path fill-rule="evenodd" clip-rule="evenodd" d="M13.1711 0C11.3514 0.00169116 9.6111 0.343306 8.00784 0.962271C8.1499 2.08182 8.40189 3.16755 8.75366 4.2093C8.14991 3.2538 7.44637 2.36763 6.65657 1.56602C5.82281 1.99219 5.0364 2.49616 4.3058 3.07115C4.17896 3.17093 4.05212 3.27409 3.92697 3.37894C3.85594 3.43982 3.78491 3.50071 3.71388 3.56328C3.27755 3.94717 2.8632 4.35474 2.47423 4.78768C1.45782 5.92414 0.617289 7.22126 0 8.63846L6.0934 13.1826C6.99989 12.6482 7.84211 12.0174 8.60822 11.3054C8.18035 9.94234 7.47681 8.70272 6.56186 7.65082C7.49034 8.45581 8.56763 9.09507 9.7464 9.52124C9.87155 9.5669 10.0001 9.61087 10.1286 9.65146C10.3383 9.38426 10.5379 9.11029 10.7273 8.82956C10.7848 8.745 10.8406 8.65875 10.8964 8.57419C10.9099 8.55221 10.9235 8.53191 10.937 8.50993C12.3644 6.27759 13.1914 3.62247 13.1914 0.776243C13.1914 3.62247 14.0184 6.27759 15.4458 8.50993C15.4593 8.53191 15.4728 8.55221 15.4863 8.57419C15.5455 8.66551 15.6064 8.75684 15.6673 8.84647C15.8533 9.12044 16.0495 9.39102 16.2558 9.65146C16.3844 9.61087 16.5112 9.5669 16.6364 9.52124C17.8151 9.09507 18.8924 8.45581 19.8209 7.65082C18.9076 8.70272 18.2024 9.94234 17.7745 11.3054C18.544 12.0208 19.3896 12.6533 20.3012 13.1877L26.3878 8.65029C25.7705 7.22972 24.9283 5.92583 23.9085 4.78768C23.5196 4.35474 23.1069 3.94717 22.6689 3.56328C22.5979 3.50071 22.5268 3.43982 22.4558 3.37894C22.3306 3.27409 22.2055 3.17093 22.077 3.07115C21.3497 2.49954 20.5667 1.99557 19.7363 1.57109C18.9347 2.38792 18.2227 3.28931 17.6122 4.26173C17.9724 3.20475 18.2312 2.10211 18.3749 0.962271C16.7733 0.343306 15.0314 0.00169116 13.2117 0L13.1711 0Z" fill="url(#paint1_linear_4042_1137)"/>
<defs>
<linearGradient id="paint0_linear_4042_1137" x1="26.6283" y1="22.2108" x2="0.235352" y2="22.2108" gradientUnits="userSpaceOnUse">
<stop stop-color="#24FF80"/>
<stop offset="0.795" stop-color="#05E3EA"/>
</linearGradient>
<linearGradient id="paint1_linear_4042_1137" x1="26.3878" y1="6.59384" x2="0" y2="6.59384" gradientUnits="userSpaceOnUse">
<stop stop-color="#24FF80"/>
<stop offset="0.795" stop-color="#05E3EA"/>
</linearGradient>
</defs>
</svg>
