<svg width="379" height="88" viewBox="0 0 379 88" fill="none" xmlns="http://www.w3.org/2000/svg">
<path d="M0 0H18L37.875 67.75L31.25 87.5H25.375L0 0ZM32.125 23.25L39 0H57L76.75 67.75L70.25 87.5H64.375L47.875 30.5C47.0417 33.1667 45.8333 37.2083 44.25 42.625C43.0833 46.4583 42.2083 49.3333 41.625 51.25H40.375L32.125 23.25ZM71.625 23.25L78.5 0H96.5L81.125 51.25H79.875L71.625 23.25ZM103 87.5V0H148.5V17.5H120.625V35.25H136.75V52.875H120.625V69.875H148.5V87.5H103ZM158.5 87.5V0H204V17.5H176.125V35.25H192.25V52.875H176.125V69.875H204V87.5H158.5ZM214 87.5V0H231.625V87.5H214ZM236.625 44.875L250 0H267.375L254.125 44.875L267.875 87.5H250.625L236.625 44.875ZM275 87.5V0H292.625V70H322V87.5H275ZM325.375 0H343.75L360 55.875V87.5H341.75V56L325.375 0ZM355.75 16.875L360.625 0H378.75L365.125 46.125H364L355.75 16.875Z" fill="url(#paint0_linear_4010_2029)"/>
<defs>
<linearGradient id="paint0_linear_4010_2029" x1="-1.5" y1="-95.65" x2="414.166" y2="-4.01549" gradientUnits="userSpaceOnUse">
<stop stop-color="#05E3EA"/>
<stop offset="1" stop-color="#24FF80"/>
</linearGradient>
</defs>
</svg>
